<?xml version="1.0" standalone="no"?>
<!DOCTYPE svg PUBLIC "-//W3C//DTD SVG 20010904//EN"
 "http://www.w3.org/TR/2001/REC-SVG-20010904/DTD/svg10.dtd">
<svg version="1.0" xmlns="http://www.w3.org/2000/svg"
 width="83.000000pt" height="125.000000pt" viewBox="0 0 83.000000 125.000000"
 preserveAspectRatio="xMidYMid meet">

<g transform="translate(0.000000,125.000000) scale(0.100000,-0.100000)"
fill="#000000" stroke="none">
<path d="M0 625 l0 -625 415 0 415 0 0 625 0 625 -415 0 -415 0 0 -625z m567
-135 c73 -190 136 -353 139 -362 5 -15 -1 -18 -39 -18 l-44 0 -39 103 -39 102
-155 0 -155 0 -36 -100 -36 -100 -47 -3 -46 -3 21 53 c11 29 73 188 136 353
63 165 118 306 120 313 4 8 20 12 46 10 l41 -3 133 -345z"/>
<path d="M380 719 c0 -6 -25 -79 -55 -161 -30 -82 -55 -153 -55 -158 0 -6 52
-10 124 -10 l124 0 -59 158 c-32 86 -59 163 -59 170 0 6 -4 12 -10 12 -5 0
-10 -5 -10 -11z"/>
</g>
</svg>
